HIERARCHY
ROOT Hips
{
  OFFSET 0 0 0
  CHANNELS 6 Xposition Yposition Zposition Zrotation Yrotation Xrotation
  JOINT LeftThigh
  {
    OFFSET 8.409438 0 -5.917753
    CHANNELS 3 Zrotation Yrotation Xrotation
    JOINT LeftLeg
    {
      OFFSET 0 0 -42.358652
      CHANNELS 3 Zrotation Yrotation Xrotation
      JOINT LeftFoot
      {
        OFFSET 0 0 -39.357303
        CHANNELS 3 Zrotation Yrotation Xrotation
      }
    }
  }
  JOINT RightThigh
  {
    OFFSET -8.409438 0 -5.917753
    CHANNELS 3 Zrotation Yrotation Xrotation
    JOINT RightLeg
    {
      OFFSET 0 0 -42.358652
      CHANNELS 3 Zrotation Yrotation Xrotation
      JOINT RightFoot
      {
        OFFSET 0 0 -39.357303
        CHANNELS 3 Zrotation Yrotation Xrotation
      }
    }
  }
  JOINT SpineLow
  {
    OFFSET 0 0 4.719101
    CHANNELS 3 Zrotation Yrotation Xrotation
    JOINT SpineMid
    {
      OFFSET 0 0 12.899191
      CHANNELS 3 Zrotation Yrotation Xrotation
      JOINT Chest
      {
        OFFSET 0 0 12.899191
        CHANNELS 3 Zrotation Yrotation Xrotation
        JOINT LeftShoulder
        {
          OFFSET 7.550562 1.41573 9.438202
          CHANNELS 3 Zrotation Yrotation Xrotation
          JOINT LeftArm
          {
            OFFSET 9.155056 0 4.247191
            CHANNELS 3 Zrotation Yrotation Xrotation
            JOINT LeftForearm
            {
              OFFSET 0 0 25.771955
              CHANNELS 3 Zrotation Yrotation Xrotation
              JOINT LeftHand
              {
                OFFSET 0 0 25.197169
                CHANNELS 3 Zrotation Yrotation Xrotation
              }
            }
          }
        }
        JOINT RightShoulder
        {
          OFFSET -7.550562 1.41573 9.438202
          CHANNELS 3 Zrotation Yrotation Xrotation
          JOINT RightArm
          {
            OFFSET -9.155056 0 4.247191
            CHANNELS 3 Zrotation Yrotation Xrotation
            JOINT RightForearm
            {
              OFFSET 0 0 -25.771955
              CHANNELS 3 Zrotation Yrotation Xrotation
              JOINT RightHand
              {
                OFFSET 0 0 -25.197169
                CHANNELS 3 Zrotation Yrotation Xrotation
              }
            }
          }
        }
        JOINT Neck
        {
          OFFSET 0 0 15.101124
          CHANNELS 3 Zrotation Yrotation Xrotation
          JOINT Head
          {
            OFFSET 0 0 11.325843
            CHANNELS 3 Zrotation Yrotation Xrotation
            End Site
            {
              OFFSET 0 0 14.157303
            }
          }
        }
      }
    }
  }
}
MOTION
Frames: 11
Frame Time: 0.0
0.0  101.685394  0.0  1.67728  29.769701  -92.135647  6.133489  -27.938214  9.539521  8.396195  5.679138  37.986055  -0.34548  2.37049  -5.062993  -27.39547  1.294123  -42.726465  10.41077  6.640156  60.313856  9.568372  6.214362  3.148766  -4.139016  0.32131  1.060232  -11.297869  1.056186  2.833629  -11.297869  1.056187  2.833629  -9.992871  20.052755  6.743965  157.709888  22.760369  -167.776985  -64.351212  -21.792411  87.356752  63.760323  -1.130342  23.550541  15.516627  -5.429553  16.187198  7.053915  79.610469  -51.703828  -23.021411  -8.031075  -79.301213  72.684231  -0.700855  30.031635  -2.695629  -1.597195  -3.852736  -2.031757  -1.180987  -2.896477  
0.0  101.685394  0.0  1.728731  29.338406  -92.250866  7.284112  -29.226675  9.316135  6.013735  8.738139  37.878504  1.630423  2.377904  -4.75076  -27.351746  1.336066  -43.056499  10.560181  6.583153  60.537078  9.686377  6.283721  3.242911  -4.025462  0.375529  1.118754  -10.984227  1.208795  2.986185  -10.984227  1.208795  2.986185  -10.028107  20.016734  6.574837  157.47374  22.907283  -168.255705  -64.437432  -21.742407  87.783874  63.74322  -1.352999  23.120782  15.459241  -5.379991  16.178368  5.49337  79.247835  -53.242955  -23.109075  -7.555162  -78.94659  72.755158  -0.676506  30.146803  -2.906183  -1.85301  -3.929363  -2.191472  -1.371178  -2.955658  
0.0  101.685394  0.0  1.769701  28.796283  -92.365867  8.351182  -30.314345  9.020621  4.521418  10.782626  38.074545  2.561424  2.535854  -4.554044  -27.217906  1.416234  -43.350735  10.706566  6.442954  60.709304  9.743708  6.322613  3.331996  -3.900604  0.439554  1.17204  -10.639146  1.386244  3.123725  -10.639145  1.386244  3.123725  -9.97908  19.969909  6.568457  157.22876  23.219897  -168.611999  -64.470601  -21.663426  88.111612  63.771183  -1.618401  22.747836  15.393702  -5.353677  16.132625  4.857611  78.751816  -53.904316  -23.053044  -7.157008  -78.704044  72.77933  -0.77857  30.279148  -3.127752  -2.129184  -3.95512  -2.359445  -1.576776  -2.976992  
0.0  101.685394  0.0  1.837207  28.17432  -92.463847  9.369031  -30.892221  8.531021  4.073649  11.570851  38.889312  2.564281  2.812617  -4.520837  -26.971126  1.589279  -43.615789  10.699279  6.29833  60.773861  9.966308  6.349748  3.475401  -3.769709  0.514502  1.210694  -10.277198  1.590403  3.220567  -10.277198  1.590403  3.220567  -9.834153  19.930683  6.734268  157.068876  23.626095  -168.870109  -64.423389  -21.496593  88.428787  63.79862  -1.85893  22.381375  15.322978  -5.335352  16.087478  5.163076  78.138732  -53.661887  -22.834951  -7.015801  -78.664547  72.751837  -0.946232  30.229394  -3.343885  -2.390478  -3.925774  -2.523036  -1.771532  -2.957094  
0.0  101.685394  0.0  1.953155  27.593461  -92.537503  9.815288  -30.866497  7.941452  3.696912  11.687415  39.402215  2.564724  3.259712  -4.072512  -26.642382  1.844708  -43.802559  10.754359  5.947963  60.848014  9.925335  6.363254  3.534294  -3.643708  0.605202  1.236504  -9.928097  1.835461  3.280762  -9.928097  1.835461  3.280762  -9.788004  19.874129  6.938221  156.928988  24.087053  -169.162439  -64.453071  -21.261512  88.764116  63.754206  -2.061292  21.896111  15.154253  -5.385221  15.992554  6.434656  77.530238  -52.51505  -22.647955  -6.873539  -78.640427  72.666809  -1.089919  30.085908  -3.570054  -2.647452  -3.84429  -2.693853  -1.963309  -2.898295  
0.0  101.685394  0.0  2.016976  27.049605  -92.598493  9.812476  -30.339141  7.306848  5.258306  10.563848  41.20865  1.155957  3.372047  -4.221621  -26.312389  2.127179  -43.964271  10.523044  5.750797  60.740571  10.105802  6.395739  3.683139  -3.515957  0.692805  1.25454  -9.574458  2.070671  3.321227  -9.574459  2.070671  3.321227  -9.762278  19.743163  7.149781  156.752163  24.5118  -169.453151  -64.634643  -20.835903  89.176909  63.727982  -2.138689  21.3686  14.951824  -5.483619  15.916574  7.71422  76.997668  -51.326544  -22.362043  -7.003145  -78.783708  72.621426  -1.189056  29.958689  -3.835841  -2.881846  -3.773881  -2.894213  -2.1379  -2.848047  
0.0  101.685394  0.0  1.915676  26.555466  -92.753735  9.583399  -29.612506  6.704845  6.577861  9.431135  42.768384  0.18842  3.360098  -4.318736  -25.860442  2.37715  -43.972544  10.191665  5.447914  60.646412  10.212584  6.434813  3.795943  -3.39014  0.769564  1.281611  -9.226165  2.277544  3.388709  -9.226165  2.277544  3.388709  -9.869894  19.477977  7.333313  156.639477  24.900267  -169.694767  -64.934091  -20.357163  89.601841  63.594778  -2.153522  20.747908  14.745587  -5.74312  15.845944  8.76358  76.698272  -50.291174  -22.245186  -7.063627  -78.847418  72.547647  -1.202618  29.859452  -4.101468  -3.119681  -3.688743  -3.094319  -2.315236  -2.786975  
0.0  101.685394  0.0  1.736373  26.28181  -92.922393  9.187925  -29.09634  6.157061  7.328455  8.819179  43.978263  -0.013649  3.367609  -4.3186  -25.727063  2.618223  -44.024041  9.803449  5.20248  60.51713  10.412997  6.386359  3.932344  -3.307463  0.813347  1.297103  -8.997596  2.394895  3.428126  -8.997596  2.394895  3.428126  -9.891994  19.306322  7.555041  156.494611  25.255647  -169.864666  -65.255521  -19.985571  90.059196  63.394763  -2.155428  20.049992  14.491316  -5.941611  15.879304  9.625556  76.670529  -49.459775  -22.182575  -7.149686  -78.92105  72.498557  -1.22853  29.81233  -4.335853  -3.236745  -3.624233  -3.270372  -2.402098  -2.740599  
0.0  101.685394  0.0  1.411144  25.97306  -93.198682  9.023621  -29.083688  5.843735  7.312402  8.949789  44.654806  0.330527  3.400093  -4.347515  -25.221831  2.694513  -43.768985  9.383443  4.975504  60.381923  10.299382  6.275179  3.971563  -3.222606  0.822613  1.329043  -8.763978  2.420084  3.517313  -8.763978  2.420084  3.517313  -9.961799  19.147644  7.740074  156.273394  25.636068  -169.880694  -65.624496  -19.877543  90.470215  63.228343  -2.188404  19.293106  14.348794  -6.153792  15.955912  9.71945  76.893392  -49.231599  -22.273214  -7.058239  -78.846999  72.488939  -1.291565  29.839825  -4.588533  -3.275487  -3.612124  -3.459981  -2.429767  -2.733153  
0.0  101.685394  0.0  1.112633  25.843931  -93.41212  9.126637  -29.340406  5.603781  6.626472  9.510241  44.878379  1.003003  3.419133  -4.408934  -25.268978  2.842383  -43.718414  8.973142  4.764622  60.183318  10.538839  6.154485  4.113716  -3.193712  0.80757  1.346588  -8.685038  2.379854  3.568243  -8.685038  2.379854  3.568243  -9.882565  19.137626  7.946785  156.314949  26.033975  -169.684031  -65.701594  -19.977318  90.846553  63.155282  -2.317645  18.539565  14.17595  -6.234682  16.05446  9.963916  77.281617  -48.967016  -22.354794  -6.909974  -78.751155  72.456657  -1.409456  29.873806  -4.685302  -3.211661  -3.620599  -3.532245  -2.381263  -2.739572  
0.0  101.685394  0.0  0.843151  25.569817  -93.659943  9.581133  -29.583048  5.580893  5.794985  9.910421  44.763891  1.773554  3.50366  -4.336575  -25.135855  2.962449  -43.627251  8.728424  4.417318  60.106236  10.520908  6.040887  4.144975  -3.136442  0.821622  1.396092  -8.525915  2.421508  3.703748  -8.525915  2.421508  3.703748  -9.999737  18.894086  8.096447  156.515403  26.530376  -169.259619  -65.787445  -20.283265  91.143145  63.182605  -2.541695  17.912332  14.122212  -6.532533  16.008532  12.695461  78.165108  -46.56215  -23.594837  -5.690553  -77.739609  72.036532  -1.353984  29.493236  -5.004727  -3.216826  -3.742907  -3.772444  -2.382273  -2.833034  
